PathFileType	3	(X/Y/Z)	C:\Files\Projects\EMG to Moment Estimation\Newest Patten Data\NSFproject\Patient 4\Session 1\Patient4_Static01.TRC
DataRate	CameraRate	NumFrames	NumMarkers	Units	OrigDataRate	OrigDataStartFrame	OrigNumFrames
100.0	100.0	8	47	mm	100.0	228	910	
Frame#	Time	Patient 4:Sacral		Patient 4:Lumbar		Patient 4:L.Shoulder		Patient 4:Chest		Patient 4:R.Shoulder		Patient 4:Neck		Patient 4:R.ASIS		Patient 4:L.ASIS		Patient 4:R.Thigh.Superior		Patient 4:R.Thigh.Lateral		Patient 4:R.Thigh.Inferior		Patient 4:R.Knee.Lateral		Patient 4:R.Patella		Patient 4:R.Knee.Medial		Patient 4:L.Thigh.Superior		Patient 4:L.Thigh.Lateral		Patient 4:L.Thigh.Inferior		Patient 4:L.Patella		Patient 4:L.Knee.Medial		Patient 4:L.Knee.Lateral		Patient 4:L.Shank.Superior		Patient 4:L.Shank.Lateral		Patient 4:L.Shank.Inferior		Patient 4:L.Ankle.Medial		Patient 4:L.Ankle.Lateral		Patient 4:R.Shank.Superior		Patient 4:R.Shank.Lateral		Patient 4:R.Shank.Inferior		Patient 4:R.Ankle.Lateral		Patient 4:R.Ankle.Medial		Patient 4:R.Heel		Patient 4:R.Midfoot.Superior		Patient 4:R.Midfoot.Lateral		Patient 4:R.Toe.Lateral		Patient 4:R.Toe.Medial		Patient 4:R.Toe		Patient 4:L.Heel		Patient 4:L.Midfoot.Lateral		Patient 4:L.Toe.Lateral		Patient 4:L.Midfoot.Superior		Patient 4:L.Toe		Patient 4:L.Toe.Medial		Patient 4:L.Elbow		Patient 4:L.Wrist		Patient 4:R.Elbow		Patient 4:R.Wrist		Patient 4:Ground		
		X1	Y1	Z1	X2	Y2	Z2	X3	Y3	Z3	X4	Y4	Z4	X5	Y5	Z5	X6	Y6	Z6	X7	Y7	Z7	X8	Y8	Z8	X9	Y9	Z9	X10	Y10	Z10	X11	Y11	Z11	X12	Y12	Z12	X13	Y13	Z13	X14	Y14	Z14	X15	Y15	Z15	X16	Y16	Z16	X17	Y17	Z17	X18	Y18	Z18	X19	Y19	Z19	X20	Y20	Z20	X21	Y21	Z21	X22	Y22	Z22	X23	Y23	Z23	X24	Y24	Z24	X25	Y25	Z25	X26	Y26	Z26	X27	Y27	Z27	X28	Y28	Z28	X29	Y29	Z29	X30	Y30	Z30	X31	Y31	Z31	X32	Y32	Z32	X33	Y33	Z33	X34	Y34	Z34	X35	Y35	Z35	X36	Y36	Z36	X37	Y37	Z37	X38	Y38	Z38	X39	Y39	Z39	X40	Y40	Z40	X41	Y41	Z41	X42	Y42	Z42	X43	Y43	Z43	X44	Y44	Z44	X45	Y45	Z45	X46	Y46	Z46	X47	Y47	Z47	
228	2.27	515.85779	996.02545	-642.55109	513.6662	1063.5878	-655.32465	347.974	1441.7483	-751.84033	508.62939	1379.08	-857.77869	685.55035	1433.9027	-767.46484	502.76859	1496.3362	-730.92432	632.92603	947.34546	-880.26953	355.89096	972.61353	-859.76282	602.07001	740.21155	-905.39349	670.49365	638.80908	-817.48639	590.05634	575.67529	-880.66376	652.3222	486.68527	-830.10449	596.06726	486.98343	-871.26221	544.20062	463.59827	-808.75366	363.29694	748.35291	-889.64661	296.83255	651.04211	-782.28455	346.33603	557.10315	-855.66553	349.375	487.97226	-847.76337	397.92401	490.18988	-815.38293	297.73047	510.20908	-802.27283	331.51636	420.68021	-822.30402	265.50555	315.47995	-731.35083	321.84317	194.83676	-780.80145	365.09064	96.599533	-741.15961	277.31201	85.156647	-717.24542	611.20062	400.32965	-840.49542	688.98236	305.14542	-772.29303	624.14514	204.2382	-798.12103	669.31921	85.114143	-735.16833	577.33826	105.95515	-748.51935	625.13153	43.986912	-652.38879	630.59113	97.72995	-827.64893	684.26367	37.04467	-747.04846	696.00934	31.718872	-833.52325	576.92084	29.261599	-858.91614	639.16724	44.480606	-950.59021	333.69431	38.269642	-650.46375	263.90164	35.241116	-734.93866	242.37115	33.485405	-830.09344	300.55563	96.323036	-813.44952	291.4408	45.250072	-944.45593	357.26019	27.390877	-855.2121	237.7849	1083.8456	-748.12445	236.57832	827.04608	-788.80688	773.61932	1076.0371	-748.35547	747.45227	823.89557	-808.91138	329.04739	9.6696882	-146.58832
229	2.28	515.85486	996.0351	-642.61462	513.66718	1063.5757	-655.35333	347.98169	1441.7312	-751.88489	508.61453	1379.069	-857.82947	685.55353	1433.8928	-767.54626	502.78442	1496.3235	-730.99402	632.95776	947.35083	-880.33386	355.89996	972.57428	-859.82104	602.06628	740.19226	-905.44141	670.25812	638.70715	-817.33429	590.07123	575.64185	-880.70978	652.33319	486.69397	-830.14063	596.03314	486.97568	-871.2915	544.18896	463.58371	-808.7793	363.30603	748.35699	-889.71448	296.84589	651.00836	-782.34955	346.34216	557.07751	-855.7301	349.37646	487.94122	-847.82581	397.95663	490.16296	-815.45398	297.73395	510.17719	-802.34619	331.52094	420.66931	-822.3689	265.52216	315.47696	-731.40851	321.82986	194.82918	-780.81818	365.07858	96.587875	-741.16071	277.30267	85.163284	-717.24066	611.20404	400.33698	-840.54907	688.99463	305.10144	-772.30902	624.1424	204.23285	-798.14008	669.30035	85.114174	-735.16565	577.28412	105.99212	-748.52332	625.10339	43.955383	-652.38843	630.54529	97.677544	-827.61401	684.25702	37.033459	-747.06836	695.97345	31.717293	-833.54688	576.91376	29.250322	-858.9118	639.14008	44.478935	-950.58582	333.68521	38.26553	-650.4682	263.89932	35.233643	-734.91992	242.37762	33.467266	-830.08832	300.56174	96.29866	-813.43671	291.42511	45.225895	-944.4566	357.27527	27.375607	-855.23145	237.80501	1083.8232	-748.20105	236.57802	827.02753	-788.89221	773.65033	1076.0258	-748.40375	747.45734	823.87183	-809.01862	329.0499	9.6540194	-146.5901
230	2.29	515.89044	996.04315	-642.69714	513.68304	1063.5526	-655.42889	347.9971	1441.7189	-751.93799	508.63217	1379.0728	-857.88525	685.54865	1433.8895	-767.62439	502.75809	1496.3184	-731.04926	632.99438	947.36102	-880.38977	355.89017	972.57379	-859.91437	602.08826	740.17206	-905.49432	670.55646	638.79779	-817.58978	590.091	575.6322	-880.74432	652.35309	486.6799	-830.17786	596.06354	486.96371	-871.33075	544.21069	463.57803	-808.8114	363.32581	748.33893	-889.78931	296.86359	651.00104	-782.43085	346.36481	557.07202	-855.79956	349.39471	487.935	-847.90167	397.96008	490.16656	-815.51733	297.754	510.17975	-802.40375	331.54108	420.63803	-822.42963	265.52243	315.4921	-731.44141	321.83685	194.79311	-780.83844	365.09641	96.574516	-741.15009	277.29962	85.169724	-717.2594	611.1933	400.31665	-840.56067	689.0069	305.1012	-772.35675	624.13226	204.21611	-798.14685	669.31281	85.105141	-735.16168	577.30548	105.95464	-748.50934	625.10748	43.96899	-652.39777	630.5838	97.723457	-827.62878	684.24017	37.047726	-747.07629	695.98602	31.711058	-833.53503	576.91107	29.23539	-858.91852	639.14471	44.474045	-950.59467	333.68732	38.281532	-650.466	263.90567	35.238747	-734.91937	242.36601	33.498295	-830.09894	300.55991	96.286926	-813.44025	291.43057	45.233063	-944.45856	357.20706	27.357103	-855.20148	237.8069	1083.809	-748.27332	236.60654	826.99078	-788.96454	773.70624	1076.0825	-748.49194	747.49268	823.86932	-809.06873	329.05301	9.6635284	-146.59325
231	2.3	515.88416	996.03754	-642.73053	513.71307	1063.5333	-655.53931	347.99976	1441.7224	-751.98639	508.63684	1379.084	-857.93689	685.57367	1433.9124	-767.68176	502.79404	1496.3098	-731.09039	633.01532	947.37482	-880.46661	355.91641	972.58514	-859.98346	602.11993	740.19067	-905.55536	670.65778	638.83337	-817.71411	590.11469	575.61804	-880.78009	652.3573	486.67508	-830.19824	596.08234	486.95895	-871.36334	544.21289	463.59021	-808.86292	363.3353	748.34283	-889.86371	296.87796	651.01099	-782.51624	346.37015	557.07275	-855.85931	349.42297	487.90134	-847.95801	397.98038	490.12534	-815.56348	297.77252	510.18356	-802.46533	331.56229	420.64658	-822.48413	265.55551	315.49045	-731.48529	321.87241	194.81763	-780.85571	365.08655	96.571434	-741.15741	277.3024	85.197014	-717.24744	611.21265	400.3288	-840.61224	689.0202	305.11685	-772.39844	624.15179	204.22626	-798.18213	669.31287	85.113274	-735.17352	577.31195	105.98512	-748.54285	625.10718	43.986927	-652.39874	630.5943	97.710739	-827.65338	684.3067	37.08329	-747.09979	695.98517	31.696726	-833.53162	576.9104	29.237661	-858.91742	639.1604	44.478233	-950.58936	333.70746	38.295502	-650.46429	263.92029	35.243347	-734.92517	242.39218	33.472275	-830.10162	300.56241	96.317162	-813.44678	291.43393	45.243828	-944.46667	357.24258	27.386967	-855.21289	237.83063	1083.7998	-748.3764	236.6442	827.00507	-789.05743	773.69629	1076.0293	-748.50116	747.51483	823.85852	-809.12933	329.04752	9.6528149	-146.58638
232	2.31	515.91138	996.02509	-642.78625	513.70288	1063.5249	-655.60791	347.99466	1441.722	-752.04523	508.65018	1379.0675	-857.99567	685.56549	1433.8904	-767.72437	502.78705	1496.3174	-731.1557	633.00336	947.3548	-880.52161	355.94138	972.57495	-860.05157	602.13507	740.18335	-905.62201	670.284	638.69489	-817.44281	590.12982	575.62463	-880.83081	652.36902	486.67194	-830.26959	596.08521	486.92294	-871.40039	544.21881	463.6095	-808.94348	363.35327	748.33881	-889.92181	296.90567	651.00385	-782.5694	346.38016	557.05646	-855.90723	349.43942	487.89819	-848.02948	397.99628	490.13605	-815.65179	297.79016	510.17267	-802.51935	331.58142	420.61288	-822.52374	265.55432	315.50729	-731.52472	321.8699	194.79057	-780.8736	365.11401	96.573853	-741.16888	277.3067	85.197243	-717.26135	611.18896	400.30606	-840.62744	689.00427	305.10388	-772.41589	624.13605	204.21918	-798.20941	669.31604	85.113739	-735.1825	577.302	105.99538	-748.54968	625.12537	43.992302	-652.3988	630.58661	97.733925	-827.66339	684.341	37.113094	-747.12006	695.98914	31.710188	-833.53644	576.89661	29.249937	-858.92737	639.14551	44.457947	-950.58417	333.7124	38.280678	-650.47156	263.92606	35.240601	-734.92383	242.39299	33.471622	-830.10095	300.58115	96.303711	-813.4566	291.42758	45.233242	-944.46826	357.22827	27.352589	-855.22455	237.8544	1083.7882	-748.4361	236.64899	826.98877	-789.12823	773.72253	1076.0829	-748.61084	747.52777	823.85938	-809.19318	329.0556	9.6561565	-146.59531
233	2.32	515.99579	995.88007	-643.10699	513.70673	1063.5162	-655.66486	347.99365	1441.7046	-752.09656	508.66681	1379.0767	-858.03827	685.58936	1433.8872	-767.76013	502.7739	1496.3147	-731.18591	633.03644	947.36096	-880.58691	355.95807	972.56421	-860.11273	602.14319	740.16785	-905.66113	670.28772	638.69299	-817.52203	590.16455	575.57904	-880.87225	652.36639	486.67081	-830.28015	596.10675	486.9191	-871.42621	544.25586	463.56244	-808.93579	363.36539	748.32623	-889.99585	296.91357	650.9964	-782.62805	346.39969	557.04657	-855.9632	349.45294	487.87442	-848.09479	398.02502	490.12155	-815.72809	297.80154	510.16049	-802.57709	331.57516	420.60764	-822.56964	265.56848	315.48849	-731.55151	321.88412	194.79298	-780.88617	365.10419	96.582451	-741.18237	277.30231	85.200409	-717.27216	611.18524	400.30243	-840.65271	689.00385	305.10361	-772.41559	624.12646	204.2097	-798.2049	669.33771	85.109528	-735.20618	577.28406	105.96338	-748.53638	625.11346	43.980022	-652.39886	630.59796	97.718185	-827.62555	684.25598	37.041534	-747.0683	695.98059	31.702105	-833.52795	576.91016	29.23801	-858.9176	639.1593	44.436329	-950.59344	333.69333	38.298733	-650.47833	263.9173	35.226959	-734.94012	242.39409	33.478039	-830.09515	300.58109	96.299736	-813.45105	291.42972	45.229652	-944.46198	357.2334	27.346489	-855.19952	237.86555	1083.7428	-748.49359	236.66011	826.98468	-789.20923	773.70526	1076.0339	-748.63934	747.54346	823.8468	-809.25983	329.05502	9.6441574	-146.59837
234	2.33	515.88812	996.04822	-642.91522	513.75049	1063.5397	-655.75537	347.99695	1441.6963	-752.15161	508.65591	1379.0845	-858.08502	685.60211	1433.8998	-767.80042	502.77628	1496.3112	-731.23163	633.06927	947.36493	-880.65417	355.97281	972.552	-860.19104	602.16888	740.16187	-905.72925	670.34607	638.68085	-817.57214	590.16638	575.5799	-880.90637	652.36444	486.65945	-830.2868	596.11493	486.9184	-871.44379	544.24188	463.58517	-808.98187	363.3942	748.31647	-890.05756	296.95383	650.9917	-782.71106	346.40955	557.04083	-856.02679	349.46484	487.85721	-848.14459	398.05338	490.10193	-815.77643	297.81277	510.1629	-802.62781	331.58438	420.60266	-822.63159	265.54446	315.5051	-731.60913	321.88718	194.79243	-780.90039	365.1142	96.573608	-741.18048	277.31241	85.185226	-717.28143	611.20508	400.29846	-840.67786	689.0329	305.11267	-772.4826	624.13141	204.20294	-798.21161	669.32874	85.128944	-735.19409	577.29315	105.98717	-748.56158	625.10675	43.977299	-652.41364	630.55487	97.667404	-827.61987	684.29895	37.073082	-747.09033	695.97217	31.722647	-833.54047	576.91046	29.237621	-858.91736	639.15894	44.458767	-950.60822	333.70676	38.292446	-650.48669	263.92438	35.231544	-734.92279	242.38513	33.471504	-830.10297	300.57254	96.303253	-813.44757	291.43039	45.216236	-944.46051	357.17416	27.330517	-855.21112	237.84746	1083.765	-748.58447	236.68649	826.97589	-789.2934	773.73975	1076.0916	-748.70734	747.57623	823.86859	-809.36151	329.05487	9.6438274	-146.59816
235	2.34	515.93701	996.02002	-643.00421	513.73743	1063.504	-655.78143	347.99915	1441.6954	-752.21265	508.66873	1379.0868	-858.12018	685.56805	1433.8846	-767.82159	502.75522	1496.3182	-731.289	633.086	947.35565	-880.72186	356.01474	972.55347	-860.26166	602.17889	740.15802	-905.77625	670.34827	638.66125	-817.59296	590.18768	575.54773	-880.93842	652.38647	486.66855	-830.34406	596.10486	486.9007	-871.48157	544.23511	463.5946	-809.01898	363.38531	748.32788	-890.117	296.94052	650.99963	-782.75909	346.4166	557.01813	-856.07086	349.48801	487.84573	-848.17175	398.03458	490.10721	-815.80817	297.82883	510.14447	-802.66858	331.61661	420.5809	-822.66302	265.57751	315.5032	-731.62469	321.89362	194.80504	-780.93127	365.11957	96.57148	-741.16705	277.31644	85.196297	-717.28235	611.19495	400.31445	-840.72089	689.05566	305.11465	-772.50629	624.13348	204.1978	-798.24237	669.31213	85.127609	-735.17242	577.31976	105.96335	-748.53351	625.09833	43.984016	-652.40082	630.58557	97.730515	-827.66278	684.23651	37.053173	-747.08478	695.97943	31.697069	-833.53992	576.90143	29.241615	-858.9278	639.16406	44.435951	-950.59991	333.7041	38.291721	-650.49805	263.92715	35.257168	-734.93579	242.38979	33.463612	-830.12335	300.58945	96.29052	-813.47131	291.42786	45.224743	-944.46436	357.23404	27.354023	-855.24634	237.8781	1083.7451	-748.64142	236.69672	826.97034	-789.34515	773.75049	1076.0898	-748.77094	747.57782	823.85431	-809.40771	329.06689	9.6654997	-146.59911
